HIERARCHY
ROOT Pelvis
{
	OFFSET -0.217368 -24.078917 2.858379
	CHANNELS 6 Xposition Yposition Zposition Zrotation Yrotation Xrotation 
	JOINT Left_hip
	{
		OFFSET 5.858135 -8.228005 -1.766408
		CHANNELS 3 Zrotation Yrotation Xrotation
		JOINT Left_knee
		{
			OFFSET 4.345143 -38.646942 0.803700
			CHANNELS 3 Zrotation Yrotation Xrotation
			JOINT Left_ankle
			{
				OFFSET -1.479033 -42.687447 -3.742800
				CHANNELS 3 Zrotation Yrotation Xrotation
				JOINT Left_foot
				{
					OFFSET 4.105436 -6.028605 12.204244
					CHANNELS 3 Zrotation Yrotation Xrotation
					End Site
					{
						OFFSET 0.000000 0.000000 0.000000
					}
				}
			}
		}
	}
	JOINT Right_hip
	{
		OFFSET -6.030973 -9.051328 -1.354253
		CHANNELS 3 Zrotation Yrotation Xrotation
		JOINT Right_knee
		{
			OFFSET -4.325663 -38.368790 -0.484304
			CHANNELS 3 Zrotation Yrotation Xrotation
			JOINT Right_ankle
			{
				OFFSET 1.905555 -42.004566 -3.456167
				CHANNELS 3 Zrotation Yrotation Xrotation
				JOINT Right_foot
				{
					OFFSET -3.483987 -6.210554 13.032330
					CHANNELS 3 Zrotation Yrotation Xrotation
					End Site
					{
						OFFSET 0.000000 0.000000 0.000000
					}
				}
			}
		}
	}
	JOINT Spine1
	{
		OFFSET 0.443945 12.440353 -3.838522
		CHANNELS 3 Zrotation Yrotation Xrotation
		JOINT Spine2
		{
			OFFSET 0.448844 13.795640 2.682033
			CHANNELS 3 Zrotation Yrotation Xrotation
			JOINT Spine3
			{
				OFFSET -0.226460 5.603239 0.285504
				CHANNELS 3 Zrotation Yrotation Xrotation
				JOINT Neck
				{
					OFFSET -1.339018 21.163553 -3.346758
					CHANNELS 3 Zrotation Yrotation Xrotation
					JOINT Head
					{
						OFFSET 1.011321 8.893734 5.040987
						CHANNELS 3 Zrotation Yrotation Xrotation
						End Site
						{
							OFFSET 0.000000 0.000000 0.000000
						}
					}
				}
				JOINT Left_collar
				{
					OFFSET 7.170247 11.399971 -1.889817
					CHANNELS 3 Zrotation Yrotation Xrotation
					JOINT Left_shoulder
					{
						OFFSET 12.292140 4.520507 -1.904600
						CHANNELS 3 Zrotation Yrotation Xrotation
						JOINT Left_elbow
						{
							OFFSET 25.533188 -1.564902 -2.294648
							CHANNELS 3 Zrotation Yrotation Xrotation
							JOINT Left_wrist
							{
								OFFSET 26.570929 1.269810 -0.737473
								CHANNELS 3 Zrotation Yrotation Xrotation
								JOINT Left_palm
								{
									OFFSET 8.669054 -1.063602 -1.559429
									CHANNELS 3 Zrotation Yrotation Xrotation
									End Site
									{
										OFFSET 0.000000 0.000000 0.000000
									}
								}
							}
						}
					}
				}
				JOINT Right_collar
				{
					OFFSET -8.295364 11.247234 -2.370738
					CHANNELS 3 Zrotation Yrotation Xrotation
					JOINT Right_shoulder
					{
						OFFSET -11.322830 4.685326 -0.847207
						CHANNELS 3 Zrotation Yrotation Xrotation
						JOINT Right_elbow
						{
							OFFSET -26.012751 -1.436928 -3.126872
							CHANNELS 3 Zrotation Yrotation Xrotation
							JOINT Right_wrist
							{
								OFFSET -26.910841 0.679372 -0.602677
								CHANNELS 3 Zrotation Yrotation Xrotation
								JOINT Right_palm
								{
									OFFSET -8.875370 -0.865157 -1.010708
									CHANNELS 3 Zrotation Yrotation Xrotation
									End Site
									{
										OFFSET 0.000000 0.000000 0.000000
									}
								}
							}
						}
					}
				}
			}
		}
	}
}
MOTION
Frames: 12
Frame Time: 0.016667
-3.519411 68.586876 37.423714 1.191912 -10.941976 -4.315805 0.996074 -0.399527 -4.688757 -13.219485 2.525605 12.761793 9.134011 18.777010 2.340409 0.000000 0.000000 0.000000 -12.701302 0.092296 -17.990423 8.629056 -2.906179 48.742745 -2.417083 -7.986095 5.760639 0.000000 0.000000 0.000000 -2.535160 -0.218809 12.851039 0.687824 0.547267 -26.861616 -2.608754 1.471448 25.579706 7.610677 -1.984268 -24.834668 0.000000 0.000000 0.000000 -10.684839 -7.581624 2.293235 -12.693430 -3.180109 -1.150243 -90.122297 -50.525417 53.545033 0.000000 0.000000 0.000000 0.000000 0.000000 0.000000 15.433351 -3.721895 -3.385096 6.288914 4.230124 -0.520500 87.858395 26.174830 24.533248 0.000000 0.000000 0.000000 0.000000 0.000000 0.000000 
-3.958481 71.165230 38.182362 0.090936 -10.031547 -2.368388 2.083125 -0.373172 -4.762487 -11.852146 2.040500 10.336419 6.856238 15.193416 8.107876 0.000000 0.000000 0.000000 -10.017062 0.481329 -20.159741 7.638581 -2.131933 43.391995 -0.912772 -6.055164 9.719769 0.000000 0.000000 0.000000 -2.688786 -0.170163 11.123999 3.109450 0.050950 -27.399447 -3.621771 -0.142967 25.991321 5.585237 -1.319843 -22.180462 0.000000 0.000000 0.000000 -8.181831 -6.909018 2.073373 -11.444851 -4.899911 -0.966441 -96.041578 -53.267619 61.545931 0.000000 0.000000 0.000000 0.000000 0.000000 0.000000 12.869964 -4.280237 -3.275251 1.609609 5.224903 -0.337485 94.135795 23.908625 24.669739 0.000000 0.000000 0.000000 0.000000 0.000000 0.000000 
-4.447472 72.853249 38.946278 -0.108255 -9.309201 -1.799241 1.582644 -0.386809 -4.745744 -11.120683 1.822843 9.284915 7.261408 16.181485 11.623725 0.000000 0.000000 0.000000 -7.804979 0.791236 -19.196527 7.138791 -1.692210 37.234577 0.054744 -4.456306 10.691098 0.000000 0.000000 0.000000 -2.030230 -0.246841 11.430618 3.926045 -0.093684 -27.874937 -5.094096 -1.473194 25.375605 3.030606 -0.297431 -19.134174 0.000000 0.000000 0.000000 -5.766734 -7.554142 2.407961 -9.430071 -6.110638 -0.799568 -97.545730 -55.921895 65.872058 0.000000 0.000000 0.000000 0.000000 0.000000 0.000000 9.917748 -5.254036 -3.265241 0.542773 7.535094 -0.407795 97.224334 21.595004 23.206518 0.000000 0.000000 0.000000 0.000000 0.000000 0.000000 
-4.875854 73.224602 39.631050 0.770646 -9.275729 -1.704763 2.308886 -0.511313 -6.796448 -13.300847 2.564090 12.994106 8.835629 18.650784 12.832540 0.000000 0.000000 0.000000 -6.334428 0.880719 -16.439233 5.271685 -0.798054 32.717970 -0.606449 -5.834981 10.936823 0.000000 0.000000 0.000000 -2.686378 -0.203094 12.997909 4.445702 -0.153654 -28.619295 -6.351120 -1.641909 24.937041 4.361968 -1.129173 -18.264805 0.000000 0.000000 0.000000 -3.209299 -7.682727 2.520245 -9.650601 -3.134481 -0.913479 -103.911848 -57.478970 73.819084 0.000000 0.000000 0.000000 0.000000 0.000000 0.000000 10.185806 -6.178341 -3.711414 -0.142024 11.077350 -0.589181 95.942712 20.441770 21.333272 0.000000 0.000000 0.000000 0.000000 0.000000 0.000000 
-5.259510 71.608994 40.201153 1.488411 -9.869403 -2.666577 2.477746 -0.644316 -8.815527 -16.499339 3.945385 18.530465 10.848628 21.681976 10.635201 0.000000 0.000000 0.000000 -6.038150 0.830138 -14.624078 4.519870 -0.488145 33.102214 -2.260473 -8.315523 8.128351 0.000000 0.000000 0.000000 -3.264598 -0.133518 13.084641 5.197123 -0.382431 -27.531911 -6.387323 -0.526196 25.279372 4.833376 -1.175642 -20.092138 0.000000 0.000000 0.000000 -3.179771 -7.925185 2.611278 -9.276656 -2.298182 -0.909974 -101.840047 -58.181591 72.548815 0.000000 0.000000 0.000000 0.000000 0.000000 0.000000 11.445253 -5.085343 -3.427743 -0.218945 12.709978 -0.681433 90.899234 24.774197 24.294924 0.000000 0.000000 0.000000 0.000000 0.000000 0.000000 
-5.624109 68.380341 40.805260 1.493123 -10.477347 -3.842236 2.889497 -0.805705 -11.650543 -18.780463 5.775578 26.795940 13.948502 27.074042 4.778251 0.000000 0.000000 0.000000 -6.472566 0.750415 -13.845443 5.407842 -0.892576 36.759219 -5.101215 -12.727606 -0.021833 0.000000 0.000000 0.000000 -3.696329 -0.087398 13.899539 6.323560 -0.689949 -26.684499 -5.347435 1.386418 24.968955 4.779073 -1.060462 -20.824460 0.000000 0.000000 0.000000 -6.078740 -5.963671 1.762699 -8.797175 -0.265578 -0.923111 -99.676813 -54.558151 66.334103 0.000000 0.000000 0.000000 0.000000 0.000000 0.000000 13.015072 -4.095009 -3.210215 0.101566 12.555747 -0.664392 85.447937 29.283659 26.672487 0.000000 0.000000 0.000000 0.000000 0.000000 0.000000 
-6.041840 63.866402 41.483219 1.376827 -8.940524 -6.069607 3.299047 -1.010382 -15.477390 -18.924278 7.721211 39.018466 15.516534 30.587878 0.092730 0.000000 0.000000 0.000000 -8.262918 0.571032 -13.719323 9.993695 -3.424949 44.256921 -7.847122 -19.071147 -6.935693 0.000000 0.000000 0.000000 -3.690034 -0.103644 15.690160 7.510575 -0.925299 -26.954797 -5.282245 2.947430 27.319204 4.073545 -0.227721 -25.110591 0.000000 0.000000 0.000000 -9.081640 -3.336983 0.508769 -12.141744 2.456096 -1.420427 -97.122075 -53.320880 62.576650 0.000000 0.000000 0.000000 0.000000 0.000000 0.000000 15.551692 -3.467575 -3.276514 2.479994 11.112578 -0.556260 79.246623 31.830883 26.343260 0.000000 0.000000 0.000000 0.000000 0.000000 0.000000 
-6.472873 59.912308 42.218403 1.933838 -8.688344 -9.534102 3.505785 -1.156141 -18.253785 -18.766796 9.610327 50.646003 15.345216 30.689565 -1.787063 0.000000 0.000000 0.000000 -9.910962 0.421303 -14.482097 11.807212 -5.191849 53.485475 -8.704873 -21.566755 -9.491935 0.000000 0.000000 0.000000 -4.151776 -0.044415 17.505182 8.789989 -1.283495 -26.191457 -4.690327 4.491537 29.139041 1.951099 0.996324 -27.570301 0.000000 0.000000 0.000000 -13.588065 -0.332526 -1.233706 -16.272050 3.065961 -2.002628 -88.863022 -51.385635 53.432234 0.000000 0.000000 0.000000 0.000000 0.000000 0.000000 15.866115 -1.224938 -2.202059 5.754376 7.251934 -0.502884 75.546855 38.006401 30.090834 0.000000 0.000000 0.000000 0.000000 0.000000 0.000000 
-6.909954 58.414078 43.098839 2.697482 -7.931584 -10.242221 3.817360 -1.149630 -18.927613 -18.138998 9.759506 53.738583 15.197418 31.101501 -4.766215 0.000000 0.000000 0.000000 -10.435539 0.366383 -14.424541 10.225624 -4.375658 56.323982 -8.584830 -21.228457 -10.132382 0.000000 0.000000 0.000000 -4.323017 -0.013556 16.483045 8.938769 -1.534947 -24.151337 -2.422322 6.037522 28.957728 -0.763243 2.305742 -29.034980 0.000000 0.000000 0.000000 -17.759695 1.480682 -2.611656 -18.346786 2.949904 -2.266761 -84.467753 -47.443071 46.075636 0.000000 0.000000 0.000000 0.000000 0.000000 0.000000 16.051984 -0.505826 -1.862989 9.181485 4.302947 -0.655460 77.544520 40.388785 33.272500 0.000000 0.000000 0.000000 0.000000 0.000000 0.000000 
-7.314199 59.579910 44.190598 3.158153 -2.337975 -10.703435 3.307142 -1.000603 -15.338826 -15.788693 7.761014 50.612682 12.499576 25.809527 -6.210606 0.000000 0.000000 0.000000 -11.643563 0.252908 -8.529443 12.324735 -5.128075 49.273248 -10.294700 -26.520415 -10.972286 0.000000 0.000000 0.000000 -3.769212 -0.082373 14.464277 7.253411 -1.250375 -22.784972 -1.103441 6.629148 29.157526 -2.299872 2.955070 -28.345845 0.000000 0.000000 0.000000 -18.010257 2.583977 -3.214725 -18.745422 3.787636 -2.413778 -89.666409 -43.104620 45.365110 0.000000 0.000000 0.000000 0.000000 0.000000 0.000000 15.706572 -0.732010 -1.937183 12.499689 -1.247496 -1.122284 83.413519 39.424333 35.696944 0.000000 0.000000 0.000000 0.000000 0.000000 0.000000 
-7.710077 64.416397 45.276840 2.780931 5.385134 -8.982786 2.217692 -0.873447 -11.746861 -14.214464 5.728222 41.686601 8.677949 17.671838 -2.098782 0.000000 0.000000 0.000000 -9.585616 0.246257 -1.531419 10.566640 -3.209513 36.320932 -11.219338 -27.721021 -4.385857 0.000000 0.000000 0.000000 -3.895137 -0.045899 11.588397 5.295529 -0.695326 -23.530785 0.271982 7.165461 28.750564 -1.073968 2.371385 -27.560466 0.000000 0.000000 0.000000 -14.345391 3.052092 -2.933226 -16.809184 5.028584 -2.261568 -97.022776 -38.091413 45.078638 0.000000 0.000000 0.000000 0.000000 0.000000 0.000000 15.392918 -2.329067 -2.691646 13.670765 -5.696944 -1.527103 90.353873 38.274827 38.698647 0.000000 0.000000 0.000000 0.000000 0.000000 0.000000 
-8.078706 70.598267 45.745766 1.316592 15.909463 -5.700337 3.658962 -0.692271 -10.915634 -11.953070 3.685266 31.366041 3.060372 8.268523 6.308065 0.000000 0.000000 0.000000 -5.299275 0.090429 0.604198 5.659133 -0.864009 24.631385 -8.605857 -20.856082 9.190725 0.000000 0.000000 0.000000 -1.895189 -0.153330 6.982866 2.088893 0.061712 -22.682527 0.979808 6.055716 27.085868 -1.814276 2.571363 -24.238374 0.000000 0.000000 0.000000 -9.996435 4.475907 -2.947234 -15.254313 6.957339 -2.186101 -101.323253 -31.237341 39.773387 0.000000 0.000000 0.000000 0.000000 0.000000 0.000000 12.562901 -3.674256 -2.949009 16.396461 -6.970827 -2.006554 96.058187 34.487930 37.988003 0.000000 0.000000 0.000000 0.000000 0.000000 0.000000 
